# Blender v2.90.1 OBJ File: ''
# www.blender.org
mtllib leaf1.mtl
o Plane
v 0.000000 0.671133 0.258710
v 0.000000 0.670274 0.246945
v 0.000000 0.619538 0.246432
v 0.000000 0.644331 0.200267
v 0.000000 0.652636 0.190807
v 0.000000 0.640072 0.158829
v 0.000000 0.109729 -0.028286
v 0.000000 0.110260 -0.017381
v 0.000000 0.164619 -0.023272
v 0.000000 0.651693 0.143186
v 0.000000 0.649995 0.128608
v 0.000000 0.632447 0.102810
v 0.000000 0.639904 0.089917
v 0.000000 0.621552 0.066965
v 0.000000 0.559309 0.253049
v 0.000000 0.374945 0.220374
v 0.000000 0.624016 0.056872
v 0.000000 0.598257 0.042399
v 0.000000 0.492245 0.257868
v 0.000000 0.606309 0.254101
v 0.000000 0.589772 0.250029
v 0.000000 0.576599 0.256013
v 0.000000 0.603996 0.019415
v 0.000000 0.572496 0.000021
v 0.000000 0.565018 -0.016139
v 0.000000 0.519751 -0.023580
v 0.000000 0.500892 -0.031216
v 0.000000 0.520832 0.265938
v 0.000000 0.545415 0.271215
v 0.000000 0.511043 0.269700
v 0.000000 0.444391 0.263405
v 0.000000 0.479299 0.273746
v 0.000000 0.429056 0.265438
v 0.000000 0.309947 0.289165
v 0.000000 0.345586 0.261192
v 0.000000 0.290781 0.265480
v 0.000000 0.362146 0.222461
v 0.000000 0.262144 0.235216
v 0.000000 0.226558 0.208259
v 0.000000 0.197168 0.152152
v 0.000000 0.209930 0.185334
v 0.000000 0.246377 0.233433
v 0.000000 0.165640 0.111389
v 0.000000 0.179971 0.151004
v 0.000000 0.183672 0.017928
v 0.000000 0.173048 0.059830
v 0.000000 0.197463 -0.023558
v 0.000000 0.492667 -0.043387
v 0.000000 0.502420 -0.057410
v 0.000000 0.526106 -0.081117
v 0.000000 0.464498 -0.146011
v 0.000000 0.531751 -0.109685
v 0.000000 0.227178 -0.074068
v 0.000000 0.399561 -0.153772
v 0.000000 0.265706 -0.117904
v 0.000000 0.194443 -0.037553
v 0.000000 0.524280 -0.131375
v 0.000000 0.492254 -0.145364
v 0.000000 0.455458 -0.164223
v 0.000000 0.387410 -0.162977
v 0.000000 0.363260 -0.163088
v 0.000000 0.335533 -0.149656
v 0.000000 0.320575 -0.149467
v 0.000000 -0.013089 0.002189
v 0.000000 0.001454 0.012539
v 0.000000 0.042562 -0.009062
vt 0.958571 0.096907
vt 0.957388 0.120438
vt 0.887453 0.121463
vt 0.921627 0.213793
vt 0.933075 0.232713
vt 0.915757 0.296669
vt 0.184746 0.670899
vt 0.185477 0.649089
vt 0.260404 0.660872
vt 0.931774 0.327956
vt 0.929435 0.357111
vt 0.905247 0.408709
vt 0.915526 0.434493
vt 0.890229 0.480397
vt 0.804436 0.108229
vt 0.550313 0.173579
vt 0.893625 0.500583
vt 0.858120 0.529529
vt 0.711996 0.098592
vt 0.869218 0.106125
vt 0.846425 0.114270
vt 0.828268 0.102301
vt 0.866030 0.575498
vt 0.822612 0.614285
vt 0.812304 0.646607
vt 0.749910 0.661488
vt 0.723914 0.676760
vt 0.751400 0.082451
vt 0.785283 0.071897
vt 0.737907 0.074929
vt 0.646036 0.087518
vt 0.694151 0.066835
vt 0.624897 0.083451
vt 0.460722 0.035996
vt 0.509845 0.091944
vt 0.434304 0.083367
vt 0.532672 0.169406
vt 0.394831 0.143895
vt 0.345780 0.197809
vt 0.305269 0.310024
vt 0.322860 0.243659
vt 0.373098 0.147462
vt 0.261811 0.391549
vt 0.281565 0.312320
vt 0.286667 0.578471
vt 0.272024 0.494668
vt 0.305677 0.661445
vt 0.712578 0.701101
vt 0.726021 0.729148
vt 0.758669 0.776561
vt 0.673751 0.906350
vt 0.766450 0.833697
vt 0.346635 0.762464
vt 0.584242 0.921872
vt 0.399740 0.850135
vt 0.301514 0.689434
vt 0.756153 0.877077
vt 0.712008 0.905055
vt 0.661289 0.942775
vt 0.567494 0.940281
vt 0.534206 0.940504
vt 0.495989 0.913640
vt 0.475370 0.913261
vt 0.015457 0.609949
vt 0.035502 0.589249
vt 0.092164 0.632452
vn -1.0000 0.0000 0.0000
usemtl Material.001
s 1
f 1/1/1 2/2/1 3/3/1
f 4/4/1 5/5/1 6/6/1
f 2/2/1 4/4/1 3/3/1
f 7/7/1 8/8/1 9/9/1
f 6/6/1 10/10/1 11/11/1
f 12/12/1 13/13/1 14/14/1
f 6/6/1 11/11/1 12/12/1
f 4/4/1 6/6/1 15/15/1
f 6/6/1 12/12/1 16/16/1
f 14/14/1 17/17/1 18/18/1
f 6/6/1 16/16/1 19/19/1
f 12/12/1 14/14/1 18/18/1
f 16/16/1 12/12/1 18/18/1
f 20/20/1 3/3/1 21/21/1
f 3/3/1 4/4/1 21/21/1
f 15/15/1 22/22/1 21/21/1
f 18/18/1 23/23/1 24/24/1
f 24/24/1 25/25/1 26/26/1
f 24/24/1 26/26/1 18/18/1
f 26/26/1 27/27/1 16/16/1
f 18/18/1 26/26/1 16/16/1
f 15/15/1 21/21/1 4/4/1
f 28/28/1 29/29/1 15/15/1
f 19/19/1 30/30/1 28/28/1
f 31/31/1 32/32/1 19/19/1
f 16/16/1 33/33/1 31/31/1
f 34/34/1 35/35/1 36/36/1
f 35/35/1 37/37/1 38/38/1
f 36/36/1 35/35/1 38/38/1
f 16/16/1 31/31/1 19/19/1
f 19/19/1 28/28/1 15/15/1
f 19/19/1 15/15/1 6/6/1
f 38/38/1 37/37/1 39/39/1
f 37/37/1 16/16/1 40/40/1
f 39/39/1 37/37/1 41/41/1
f 39/39/1 42/42/1 38/38/1
f 40/40/1 41/41/1 37/37/1
f 43/43/1 44/44/1 40/40/1
f 45/45/1 46/46/1 27/27/1
f 46/46/1 43/43/1 40/40/1
f 47/47/1 45/45/1 27/27/1
f 46/46/1 40/40/1 16/16/1
f 47/47/1 27/27/1 48/48/1
f 27/27/1 46/46/1 16/16/1
f 49/49/1 50/50/1 51/51/1
f 50/50/1 52/52/1 51/51/1
f 47/47/1 48/48/1 53/53/1
f 48/48/1 49/49/1 54/54/1
f 53/53/1 48/48/1 55/55/1
f 9/9/1 47/47/1 56/56/1
f 56/56/1 47/47/1 53/53/1
f 52/52/1 57/57/1 58/58/1
f 51/51/1 52/52/1 58/58/1
f 51/51/1 59/59/1 54/54/1
f 54/54/1 60/60/1 61/61/1
f 62/62/1 63/63/1 55/55/1
f 54/54/1 61/61/1 62/62/1
f 51/51/1 54/54/1 49/49/1
f 64/64/1 65/65/1 66/66/1
f 65/65/1 8/8/1 66/66/1
f 54/54/1 62/62/1 48/48/1
f 62/62/1 55/55/1 48/48/1
f 56/56/1 7/7/1 9/9/1
f 7/7/1 66/66/1 8/8/1